<mxfile host="app.diagrams.net" agent="Mozilla/5.0 (X11; Linux x86_64) AppleWebKit/537.36 (KHTML, like Gecko) Chrome/132.0.0.0 Safari/537.36 Edg/132.0.0.0" version="24.8.9">
  <diagram name="Page-1" id="IlO0H8xPt88Z202fHjw6">
    <mxGraphModel dx="1210" dy="780" grid="1" gridSize="10" guides="1" tooltips="1" connect="1" arrows="1" fold="1" page="1" pageScale="1" pageWidth="827" pageHeight="1169" math="0" shadow="0">
      <root>
        <mxCell id="0" />
        <mxCell id="1" parent="0" />
        <mxCell id="nBal-Nn_oJCaw-7BZZpf-2" style="edgeStyle=orthogonalEdgeStyle;rounded=0;orthogonalLoop=1;jettySize=auto;html=1;" edge="1" parent="1" source="nBal-Nn_oJCaw-7BZZpf-1">
          <mxGeometry relative="1" as="geometry">
            <mxPoint x="340" y="235" as="targetPoint" />
          </mxGeometry>
        </mxCell>
        <mxCell id="nBal-Nn_oJCaw-7BZZpf-1" value="" style="rounded=0;whiteSpace=wrap;html=1;" vertex="1" parent="1">
          <mxGeometry x="120" y="200" width="120" height="70" as="geometry" />
        </mxCell>
        <mxCell id="nBal-Nn_oJCaw-7BZZpf-5" value="" style="edgeStyle=orthogonalEdgeStyle;rounded=0;orthogonalLoop=1;jettySize=auto;html=1;" edge="1" parent="1" source="nBal-Nn_oJCaw-7BZZpf-3" target="nBal-Nn_oJCaw-7BZZpf-4">
          <mxGeometry relative="1" as="geometry" />
        </mxCell>
        <mxCell id="nBal-Nn_oJCaw-7BZZpf-3" value="" style="rounded=0;whiteSpace=wrap;html=1;" vertex="1" parent="1">
          <mxGeometry x="340" y="205" width="120" height="60" as="geometry" />
        </mxCell>
        <mxCell id="nBal-Nn_oJCaw-7BZZpf-7" value="" style="edgeStyle=orthogonalEdgeStyle;rounded=0;orthogonalLoop=1;jettySize=auto;html=1;" edge="1" parent="1" source="nBal-Nn_oJCaw-7BZZpf-4" target="nBal-Nn_oJCaw-7BZZpf-6">
          <mxGeometry relative="1" as="geometry" />
        </mxCell>
        <mxCell id="nBal-Nn_oJCaw-7BZZpf-4" value="" style="rounded=0;whiteSpace=wrap;html=1;" vertex="1" parent="1">
          <mxGeometry x="340" y="345" width="120" height="60" as="geometry" />
        </mxCell>
        <mxCell id="nBal-Nn_oJCaw-7BZZpf-6" value="" style="shape=singleArrow;whiteSpace=wrap;html=1;arrowWidth=0.4;arrowSize=0.4;rounded=0;" vertex="1" parent="1">
          <mxGeometry x="560" y="345" width="80" height="60" as="geometry" />
        </mxCell>
      </root>
    </mxGraphModel>
  </diagram>
</mxfile>
